<svg xmlns="http://www.w3.org/2000/svg" version="1.1" xmlns:xlink="http://www.w3.org/1999/xlink" xmlns:svgjs="http://svgjs.dev/svgjs" viewBox="0 0 9.125915950618413 9.212415420334608"><g transform="matrix(0.8571428571428572,0,0,0.8571428571428572,2.4873123723029935,3.875421584700031)"><rect width="10.733401412104342" height="10.733401412104342" x="-2.9451141692115894" y="-4.51411689300702" fill="#ffffff"></rect><g><path d=" M -0.6026136856510311 0.04531538415847079 L -1.282785619944745 -0.15831698016298912 L -1.2268584212930764 -0.34512476493379785 L -0.5466864869993625 -0.14149240061233795 L -0.6026136856510311 0.04531538415847079 M -0.7331834429246833 -0.6170294455207146 L -0.42199258783921645 -0.4590381428766258 L -0.5102685305773176 -0.28516359633890087 L -1.1433502128428803 -0.6065785673340384 L -1.074540247221386 -0.7421115471993419 L -0.6236307345009885 -0.8328122160957373 L -0.9455215616810844 -0.9962358844467861 L -0.8572456189429833 -1.170110430984511 L -0.22416393667742057 -0.8486954599893736 L -0.2943319937256548 -0.7104874871004128 L -0.7331834429246833 -0.6170294455207146 M -0.19481796601748347 -1.738955413143679 L -0.3258892089846981 -1.5826341757284468 L 0.08790230182032827 -1.2356808855211139 L -0.037386386310097525 -1.0862561732859655 L -0.4511778971151239 -1.4332094634932986 L -0.5828916461753151 -1.2761219455025015 L -0.7131593440213418 -1.3853479813085137 L -0.3250856638635103 -1.8481814489496913 L -0.19481796601748347 -1.738955413143679 M 0.5838221089721118 -1.9022696102300998 L 0.6894112434639945 -1.7690369765503022 L 0.29284822792295023 -1.4547540232979925 L -0.14814168671961858 -2.011196199254794 L 0.24136783645014237 -2.319889139504592 L 0.34695697094202504 -2.1866565058247946 L 0.11027311581673771 -1.999080513962744 L 0.17238437140019808 -1.9207083765040398 L 0.37458448604365546 -2.0809554159093677 L 0.4727202698655229 -1.9571274387246147 L 0.2705201552220655 -1.7968803993192868 L 0.3400847614755412 -1.709103605365538 L 0.5838221089721118 -1.9022696102300998 M 0.7876238669258387 -1.8322453496150521 L 0.47296574793444746 -2.468712370090426 L 0.7652027178991964 -2.6131891965568954 Q 0.8118172039058434 -2.636234579919645 0.8605670199618092 -2.636909438800826 Q 0.9093168360177748 -2.637584297682007 0.9537355795098965 -2.619942721035315 Q 0.998154323002018 -2.602301144388623 1.0333418301765818 -2.5706137756300778 Q 1.0685293373511455 -2.538926406871533 1.0884724575689098 -2.498586947827319 Q 1.1066428559895396 -2.461833218475924 1.112726523983861 -2.4224506210027394 Q 1.1188101919781828 -2.3830680235295554 1.1121524303969084 -2.3446372518650818 Q 1.1054946688156342 -2.306206480200608 1.087001981606606 -2.271406760089822 L 1.3371369423503514 -2.1039149650259295 L 1.1453004037845345 -2.009074348879228 L 0.936633012940105 -2.1490990609774077 L 0.8658148515069297 -2.1140878054839995 L 0.9624281894507654 -1.9186655372253638 L 0.7876238669258387 -1.8322453496150521 M 0.7904741751287092 -2.2664813174288074 L 0.9007353631828936 -2.3209925126906965 Q 0.9114925522613506 -2.3263106780821 0.91736468487305 -2.339253554833063 Q 0.9232368174847494 -2.3521964315840256 0.9224259930209631 -2.370759636148134 Q 0.9216151685571766 -2.389322840712242 0.910978837774369 -2.4108372188691565 Q 0.8998993265422778 -2.433248029449275 0.8849671735318572 -2.4442721306132427 Q 0.8700350205214366 -2.4552962317772096 0.8548409911878243 -2.457824367970007 Q 0.8396469618542121 -2.4603525041628043 0.8288897727757552 -2.4550343387714 L 0.7231107468375945 -2.4027390457559297 L 0.7904741751287092 -2.2664813174288074 M 1.5346240614950573 -2.5148356316407083 L 1.6118143025839533 -2.174478955959684 L 1.4216436671747847 -2.131349738159298 L 1.2646090792861997 -2.823765897854219 L 1.4128446515025772 -2.8573845701909297 L 1.7706306962079739 -2.568360096808367 L 1.690786349408285 -2.9204195808222635 L 1.8809569848174534 -2.963548798622649 L 2.0379915727060385 -2.271132638927728 L 1.886830298406443 -2.236850440163319 L 1.5346240614950573 -2.5148356316407083 M 2.351096205196422 -2.9888081790473753 L 2.569095980947474 -2.988495493116726 L 2.794077367685899 -2.278172062825105 L 2.5960775713615494 -2.278456061973126 L 2.5532769887334075 -2.417517595571356 L 2.3642771831510734 -2.417788685667194 L 2.3220778532157325 -2.2788490708951348 L 2.1230780579200474 -2.279134504382287 L 2.351096205196422 -2.9888081790473753 M 2.5224634847091036 -2.5475619263579925 L 2.459822134297847 -2.7976520325570466 L 2.393463617406876 -2.5477469561059456 L 2.5224634847091036 -2.5475619263579925 M 3.4642312142630924 -2.68032217792969 L 3.2645071359242106 -2.721870854583516 L 3.1545253447817307 -2.193189470745299 L 2.9636126228401523 -2.2329051175467503 L 3.0735944139826326 -2.7615865013849668 L 2.8728912960440502 -2.8033388480223898 L 2.9075151932555716 -2.9697755799714582 L 3.4988551114746143 -2.8467589098787585 L 3.4642312142630924 -2.68032217792969 M 3.4416382306315674 -2.1092941961147966 L 3.6938901879611734 -2.772972544430743 L 3.8761680441887925 -2.703692077276837 L 3.623916086859187 -2.040013728960891 L 3.4416382306315674 -2.1092941961147966 M 4.035592314362288 -1.8230689509022753 Q 3.9662796516428083 -1.8649826096155844 3.925584970794294 -1.9252336921837636 Q 3.8848902899457793 -1.9854847747519428 3.8708927830884976 -2.0541329342449717 Q 3.8568952762312154 -2.1227810937380007 3.868450314350496 -2.191169551053998 Q 3.8800053524697766 -2.259558008369995 3.915709580262596 -2.318602128464366 Q 3.9524487132088297 -2.3793576723295886 4.0086698990246035 -2.420152013425728 Q 4.064891084840378 -2.4609463545218677 4.1325244664072525 -2.479063354765549 Q 4.200157847974127 -2.49718035500923 4.272068813079452 -2.4875854033355247 Q 4.343979778184777 -2.4779904516618187 4.411581017133405 -2.4371116981019245 Q 4.480893679852883 -2.3951980393886156 4.521588360701398 -2.3349469568204366 Q 4.562283041549913 -2.274695874252257 4.575593966176128 -2.2058785851048692 Q 4.588904890802343 -2.1370612959574813 4.577349852683063 -2.068672838641484 Q 4.565794814563782 -2.000284381325487 4.530608039347671 -1.9420959731165415 Q 4.4943863589781445 -1.882196141136745 4.438593029105083 -1.8411430737522514 Q 4.382799699232021 -1.8000900063677583 4.315166317665147 -1.7819730061240766 Q 4.247532936098272 -1.7638560058803954 4.175791100647307 -1.7727643753230344 Q 4.10404926519634 -1.7816727447656737 4.035592314362288 -1.8230689509022753 M 4.084105628423463 -2.2144350945054256 Q 4.065477335661992 -2.183629466630102 4.056699793196547 -2.1497885927012668 Q 4.0479222507311015 -2.115947718772432 4.051323995156865 -2.0829223022745014 Q 4.054725739582629 -2.0498968857765707 4.072804437149146 -2.0208510479628936 Q 4.090883134715662 -1.9918052101492163 4.126823033903539 -1.9700722019275005 Q 4.162762933091417 -1.9483391937057846 4.197569242766933 -1.9459895539946621 Q 4.232375552442449 -1.9436399142835397 4.263291880067706 -1.957081665886949 Q 4.294208207692964 -1.970523417490358 4.31967213192421 -1.9942739661733964 Q 4.3451360561554555 -2.018024514856435 4.363246896340219 -2.0479744308463332 Q 4.38187518910169 -2.078780058721657 4.390394005278781 -2.1121930767077792 Q 4.398912821455872 -2.1456060946939015 4.3955110770301085 -2.178631511191832 Q 4.3921093326043446 -2.2116569276897624 4.373344052806762 -2.2405336358490806 Q 4.3545787730091785 -2.269410344008399 4.319494585706726 -2.2906258996534072 Q 4.2835546865188485 -2.3123589078751228 4.249176232786046 -2.3144498212978917 Q 4.214797779053242 -2.31654073472066 4.18397104806198 -2.304213421291031 Q 4.153144317070717 -2.291886107861401 4.127680392839471 -2.2681355591783623 Q 4.102216468608225 -2.244385010495324 4.084105628423463 -2.2144350945054256 M 4.817136933079889 -1.6735598629114048 L 4.568148320479454 -1.4290078831702655 L 4.431507529506612 -1.568127595081683 L 4.938045967748184 -2.0656402186238294 L 5.044555712506503 -1.9571981867749293 L 4.986711658287213 -1.5009087332572353 L 5.24426148392835 -1.7538693770582419 L 5.380902274901192 -1.614749665146824 L 4.8743638366596205 -1.1172370416046782 L 4.7657519258863354 -1.2278193767137537 L 4.817136933079889 -1.6735598629114048 M 5.654139456911628 -1.2222510250504057 L 5.7665132895277615 -1.0354459883325455 L 5.274609207424851 -0.4757975504624009 L 5.172544900736803 -0.6454645104171548 L 5.2694890534950085 -0.7539625806580291 L 5.172064033474599 -0.915917406069385 L 5.031304395522029 -0.880256162071713 L 4.928724612537577 -1.050780025864622 L 5.654139456911628 -1.2222510250504057 M 5.364906787266667 -0.847538518173401 L 5.546657740132028 -1.0303925340782574 L 5.298410345030515 -0.9580791132954376 L 5.364906787266667 -0.847538518173401 M 5.300812842617183 -0.3943444340058824 L 5.971638666038386 -0.626922839347531 L 6.035515833702642 -0.4426819441825525 L 5.525310277861163 -0.26579132603538325 L 5.6307894983118825 0.03844235726268386 L 5.470169230732157 0.09413014445716306 L 5.300812842617183 -0.3943444340058824" fill="#461d16" fill-rule="nonzero"></path></g><g><path d=" M -0.8998029429749941 2.6740228297312463 L -0.9560844086467974 2.700030455955752 L -1.156175339438562 2.2670262765130067 L -0.5116617809388779 1.9691970084581791 L -0.31534615072809 2.3940312977227594 L -0.3716276163998935 2.4200389239472657 L -0.5385797976475294 2.0587482249573017 L -0.7709677849375562 2.1661345525939724 L -0.6254089736487883 2.481129207241001 L -0.6789671425945367 2.505878399938515 L -0.8245259538833046 2.190883745291486 L -1.0705304248036065 2.3045622405631176 L -0.8998029429749941 2.6740228297312463 M -0.09537686774893173 2.939247053798602 Q -0.09051606570607174 2.917102695521602 -0.0914325143080037 2.8929902480730325 Q -0.09234896290993588 2.8688778006244635 -0.09904266215666002 2.8427972640043246 Q -0.10573636140338416 2.8167167273841858 -0.11772498914381613 2.790173878914186 Q -0.1297136168842482 2.763631030444187 -0.14861117704400506 2.737806967634312 Q -0.20353221125829868 2.662755785093113 -0.2578696517801733 2.6486156805131693 Q -0.3122070923020479 2.634475575933226 -0.3614342120333721 2.6704990499877628 Q -0.395328294471333 2.6953020976974438 -0.4025900921013949 2.7260188080548375 Q -0.40985188973145686 2.7567355184122313 -0.39597277395391994 2.8011018361006954 Q -0.382093658176383 2.8454681537891595 -0.354848374241837 2.9097930673400225 Q -0.32287870026735177 2.980573996593354 -0.30815256192455864 3.0379511771576593 Q -0.2934264235817654 3.095328357721965 -0.30597253453731554 3.141683994918438 Q -0.3185186454928657 3.188039632114911 -0.37016677111261553 3.225834752434425 Q -0.4097098672902366 3.2547716414290524 -0.4499823642962016 3.2606983593154157 Q -0.4902548613021666 3.266625077201779 -0.5297015660793146 3.2533601805861045 Q -0.5691482708564626 3.2400952839704305 -0.6061845849134044 3.208957502400839 Q -0.6432208989703462 3.177819720831248 -0.6762916292499208 3.132627610913967 Q -0.7087718107745031 3.088242502959494 -0.7293140003293207 3.0406975931552473 Q -0.7498561898841383 2.993152683351001 -0.7582733396956032 2.943550248037285 Q -0.766690489507068 2.893947812723569 -0.761476822253471 2.8418055297493 L -0.6948085039486471 2.836389319413034 Q -0.6997281168599633 2.863533331806245 -0.698201109201815 2.89525348703304 Q -0.6966741015436666 2.9269736422598345 -0.6887792944857337 2.9614688886210074 Q -0.6808844874278008 2.9959641349821804 -0.6647914238366501 3.030655824249946 Q -0.6486983602454994 3.065347513517711 -0.6250764100458033 3.097627592030055 Q -0.574879765871449 3.166222758868785 -0.5218116391622434 3.186248340697429 Q -0.4687435124530378 3.2062739225260724 -0.4195163927217136 3.1702504484715357 Q -0.38400830635813554 3.14426630325187 -0.37679592446352556 3.109248714137165 Q -0.3695835425689155 3.07423112502246 -0.38421084944080486 3.025455701972777 Q -0.39883815631269415 2.9766802789230935 -0.42726453775722506 2.9107413614466133 Q -0.45724611225891687 2.840983887363907 -0.470417057544549 2.787425263405828 Q -0.4835880028301812 2.7338666394477493 -0.4708054283655911 2.692914157348892 Q -0.45802285390100095 2.651961675250035 -0.41202374202091113 2.618300396215468 Q -0.358761612475544 2.5793241783859693 -0.30285018863049995 2.5786817738250942 Q -0.24693876478545573 2.578039369264219 -0.19431293962488683 2.6101605854019874 Q -0.1416871144643178 2.6422818015397556 -0.09798650659487995 2.7019999467875917 Q -0.07023071511023693 2.7399290390395956 -0.05398000917972623 2.7782228317057713 Q -0.03772930324921542 2.816516624371947 -0.03188140653253213 2.854988069678707 Q -0.026033509815848843 2.8934595149854667 -0.030106100161908733 2.9336143902545193 L -0.09537686774893173 2.939247053798602 M 0.3675176683262782 3.396080859748986 Q 0.3679476317679804 3.3734133691194788 0.36232678678903907 3.3499473063538012 Q 0.35670594181009774 3.326481243588124 0.34503428841051265 3.3022166086862765 Q 0.33336263501092755 3.277951973784429 0.3164080447172325 3.2542709292979004 Q 0.29945345442353744 3.230589884811372 0.27586448078455916 3.2089667415925986 Q 0.20730902614627855 3.1461244816130383 0.1512545905974657 3.14289953893076 Q 0.09520015504865276 3.139674596248481 0.053981038287865934 3.184641077247784 Q 0.025600662813225816 3.2156016051489424 0.02449499163661617 3.247145661502703 Q 0.02338932046000658 3.2786897178564636 0.04568831082980174 3.319478871175548 Q 0.06798730119959684 3.3602680244946326 0.10730229857303897 3.4180116906540152 Q 0.15251453935622572 3.4811611426180913 0.17819217683531285 3.5345433394021555 Q 0.2038698143144001 3.58792553618622 0.20064485614144212 3.6358405614369977 Q 0.19741989796848414 3.6837555866877754 0.15417361153093734 3.7309335339657324 Q 0.12106317347719042 3.7670541498504178 0.08273118425792703 3.7807530039081216 Q 0.044399195038663575 3.7944518579658255 0.0031185531331690552 3.7891689985251125 Q -0.03816208877232541 3.7838861390843994 -0.08057921089882147 3.7606044348833336 Q -0.12299633302531754 3.737322730682268 -0.16427703689352957 3.6994822300494143 Q -0.2048205853355235 3.6623174526421476 -0.23427611726528944 3.619716142348513 Q -0.2637316491950553 3.5771148320548782 -0.2816998707991685 3.5301212898135717 Q -0.2996680924032816 3.483127747572265 -0.304766841130253 3.4309741018567523 L -0.24045017735418034 3.4126065554578555 Q -0.23995868876777038 3.440188405268364 -0.23224922642075818 3.470995290705227 Q -0.224539764073746 3.50180217614209 -0.21004233787987206 3.5340833569407097 Q -0.1955449116859981 3.566364537739329 -0.17296950739472045 3.5972328243954648 Q -0.15039410310344278 3.628101111051601 -0.12090788605471992 3.6551300400750675 Q -0.05824967482618387 3.7125665142499344 -0.002287372087638684 3.721811549252541 Q 0.05367493065090645 3.7310565842551475 0.09489404741169333 3.6860901032558453 Q 0.12462586933750675 3.65365526450225 0.12484080458631985 3.617903288293391 Q 0.12505573983513285 3.582151312084532 0.10115957421163879 3.5371849550106647 Q 0.07726340858814473 3.4922185979367972 0.03647410036226639 3.433123485326241 Q -0.006588106342897471 3.3705883243871204 -0.02999284534269908 3.320646175931621 Q -0.05339758434250064 3.270704027476121 -0.04888259642832132 3.2280412230191375 Q -0.04436760851414212 3.1853784185621543 -0.005851384655701952 3.143360559267724 Q 0.03874634823301826 3.0947083011373313 0.09344930634929904 3.083128734075976 Q 0.14815226446557983 3.0715491670146204 0.20604961956129664 3.092742238356936 Q 0.26394697465701344 3.1139353096992513 0.3184964761971507 3.163938828392665 Q 0.3531427812294001 3.1956978199952384 0.37657820534815867 3.23006758718057 Q 0.4000136294669172 3.264437354365902 0.41328247361088066 3.3010186033205673 Q 0.426551317754844 3.3375998522752326 0.43042145345054617 3.3777747455507208 L 0.3675176683262782 3.396080859748986 M 0.8027141305775896 3.5308544369630575 L 0.8531230487445547 3.5615128936958453 L 0.7362268890661748 4.321420972250381 L 0.6730021442465913 4.282967992619428 L 0.7097573463367275 4.045487351051923 L 0.43720743285771224 3.8797238307509194 L 0.24409914560563314 4.022111292960794 L 0.18002001234254178 3.9831386784699627 L 0.8027141305775896 3.5308544369630575 M 0.724667048533878 3.990181828900946 L 0.7848813369293424 3.6159837002671593 L 0.4786031768036071 3.840526989256152 L 0.724667048533878 3.990181828900946 M 1.1529708651012296 3.721207514542804 L 1.2409943036759739 4.159385417068112 L 1.5911094936508414 3.879922801055053 L 1.6625655789936966 3.9058076975677802 L 1.2521039038099921 4.231479638645588 L 1.1621879475026238 4.479695514047085 L 1.0963731320552572 4.455854161995889 L 1.1869702698498026 4.205757863295895 L 1.0805745681091263 3.694982027286488 L 1.1529708651012296 3.721207514542804 M 2.2501066416859934 3.9863162581833684 L 2.3161065747146674 3.9864102805774815 L 2.4157474786472566 4.238552483041679 L 2.5171063707565366 3.9866966215050073 L 2.5841063027704934 3.9867920684808493 L 2.459674780331527 4.2896151128871844 L 2.5952173515950023 4.610808530278148 L 2.8531131527202476 3.9821752860395314 L 2.9291130756017507 3.9822835542509343 L 2.6271019280040084 4.691854034701393 L 2.5651019909164665 4.691765710634196 L 2.416602170296183 4.340553804122267 L 2.266102294316869 4.69133976069723 L 2.2051023562146104 4.691252861211762 L 1.9061141136573092 3.980826207142183 L 1.9811140375535292 3.9809330507718568 L 2.2382177138489947 4.6102999546009 L 2.373674867597195 4.289492598858492 L 2.2501066416859934 3.9863162581833684 M 3.237617382171997 4.611414419577607 L 3.044608465545525 3.928151982367222 L 3.3333109038034343 3.846598919003924 Q 3.3775786110029804 3.8340941159548847 3.419312613861991 3.8420485490185348 Q 3.461046616721002 3.8500029820821844 3.497308263553194 3.8735315385406115 Q 3.5335699103853857 3.8970600949990386 3.559224023038212 3.9308590077625594 Q 3.584878135691038 3.96465792052608 3.596023721017356 4.004113920421328 Q 3.6098877417891164 4.053193334925172 3.6033550428068466 4.101799649782473 Q 3.596822343824577 4.150405964639774 3.5710863718449324 4.189888995757748 Q 3.545350399865287 4.229372026875723 3.501876445189465 4.252043931622447 L 3.743808990584198 4.468424715147291 L 3.6677840151762817 4.489900355166293 L 3.4358499825420985 4.283164764359955 L 3.233758275761562 4.340251908714263 L 3.3049812844321758 4.592385371459504 L 3.237617382171997 4.611414419577607 M 3.2169039759998137 4.280586738140962 L 3.4401671949192636 4.217519035806679 Q 3.480585536275371 4.206101606935817 3.504165720037502 4.17554060345517 Q 3.5277459037996333 4.144979599974523 3.533911575713836 4.104270454935031 Q 3.540077247628038 4.0635613098955385 3.528659818757177 4.023142968539431 Q 3.5169705463417706 3.9817622857224637 3.4882825984791386 3.9519377715196993 Q 3.4595946506165065 3.9221132573169344 3.422202073386319 3.909295489645282 Q 3.3848094961561315 3.8964777219736293 3.3463158377217437 3.9073514637554023 L 3.128826667567452 3.96878810482242 L 3.2169039759998137 4.280586738140962 M 3.9722144011671987 4.364973892502568 L 3.679814158323464 3.7179792263847355 L 3.7436023648421237 3.689151033428311 L 4.036002607685858 4.336145699546143 L 3.9722144011671987 4.364973892502568 M 4.379709383448487 3.3894714552800282 L 4.166264282135481 3.525302927058407 L 4.514164652540182 4.0719923565083205 L 4.45510869565516 4.109574186644631 L 4.107208325250459 3.562884757194717 L 3.893763223937453 3.6987162289730957 L 3.860476460102435 3.6464095243035053 L 4.346422619613469 3.337164750610438 L 4.379709383448487 3.3894714552800282 M 4.896908689127297 3.788282818771678 L 4.434637782599327 3.249389871167231 L 4.487768073208216 3.2038138662982765 L 4.950038979736186 3.742706813902723 L 4.896908689127297 3.788282818771678 M 4.784477381937483 3.1086840723534355 L 5.2312331658096545 3.480127566813577 L 5.186480937561445 3.533953564870465 L 4.640531528698722 3.080038106924337 L 4.677611946390096 3.035439422820058 L 5.43074807800929 3.055588051797634 L 4.976302865843277 2.6777513818734624 L 5.021055094091487 2.6239253838165744 L 5.5662355601248255 3.0772015242162998 L 5.524679919608631 3.127182808126267 L 4.784477381937483 3.1086840723534355 M 5.892105438154608 2.510255800195897 Q 5.86118333243985 2.574168423191401 5.807161030327696 2.6157958285213394 Q 5.75313872821554 2.6574232338512784 5.686730965498213 2.675284058324945 Q 5.620323202780885 2.6931448827986113 5.552041520221395 2.6873257912161526 Q 5.483759837661905 2.6815066996336934 5.422547748032408 2.6518911617660392 Q 5.357734947248235 2.6205335334355815 5.31034378396375 2.570387968900488 Q 5.262952620679265 2.520242404365394 5.237106726336647 2.4588584508789153 Q 5.211260831994029 2.3974744973924365 5.211287033064673 2.330833674216969 Q 5.211313234135318 2.2641928510415017 5.242235339850075 2.200280228045998 Q 5.287965214498659 2.105761560235746 5.355417352047682 2.0650772986587214 Q 5.422869489596704 2.0243930370816976 5.499789525948697 2.023838052750304 L 5.50867770509294 2.088126467503663 Q 5.4344582021069545 2.089988019682158 5.381727901563268 2.1277969525495704 Q 5.328997601019581 2.1656058854169826 5.298511017920525 2.228618330623817 Q 5.272815183594179 2.2817288201552923 5.274632304065117 2.335375330509593 Q 5.276449424536056 2.3890218408638937 5.29944912272633 2.4379198355380756 Q 5.322448820916604 2.4868178302122574 5.3625365979412996 2.5256536401461087 Q 5.402624374965996 2.5644894500799595 5.453934508920133 2.589314239174905 Q 5.507945176240278 2.6154455961169534 5.564815140248089 2.6207425002835647 Q 5.6216851042559 2.626039404450176 5.675156819266595 2.6108070148210034 Q 5.728628534277291 2.5955746251918312 5.770905559172504 2.56215078391035 Q 5.813182584067715 2.528726942628869 5.8375718505469605 2.478316986463401 Q 5.865880820567512 2.419805430199912 5.8618853541464135 2.35344063344683 Q 5.857889887725316 2.287075836693748 5.819760496727961 2.209750876026633 L 5.886373653089472 2.241979549588492 Q 5.952207559121318 2.3860312653595654 5.892105438154608 2.510255800195897 M 5.721351257933669 2.1743584796691096 L 5.652538684652943 2.3165865702788224 L 5.603929084064813 2.293068349030979 L 5.6984374916718865 2.097729768889791 L 6.0125995399173915 2.2497271617693704 L 5.986903705591044 2.3028376513008455 L 5.721351257933669 2.1743584796691096" fill="#314f4f" fill-rule="nonzero"></path></g><g clip-path="url(#SvgjsClipPath48228)"><g clip-path="url(#SvgjsClipPath48215d06697e9-28de-434f-8acf-f1afbdaa35c8)"><path d=" M 3.4360235039624563 1.1684754094595127 L 2.1899043349576037 1.1684754094595127 L 2.1899043349576037 0.7513124883520053 L 3.4360235039624563 0.7513124883520053 Z" fill="#ffffff" transform="matrix(1,0,0,1,0,0)" fill-rule="nonzero"></path></g><g clip-path="url(#SvgjsClipPath48215d06697e9-28de-434f-8acf-f1afbdaa35c8)"><path d=" M 1.9312449466497545 1.6978542374838803 L 3.4351907861270963 1.6978542374838803 L 3.4351907861270963 1.3718308477361765 L 1.9312449466497545 1.3718308477361765 Z" fill="#ef434f" transform="matrix(1,0,0,1,0,0)" fill-rule="nonzero"></path></g><g clip-path="url(#SvgjsClipPath48215d06697e9-28de-434f-8acf-f1afbdaa35c8)"><path d=" M 1.7084211396705242 1.3706822714115412 L 3.5121166854695387 1.3706822714115412 L 3.5121166854695387 1.2076705765376896 L 1.7084211396705242 1.2076705765376896 Z" fill="#314f4f" transform="matrix(1,0,0,1,0,0)" fill-rule="nonzero"></path></g><g clip-path="url(#SvgjsClipPath48215d06697e9-28de-434f-8acf-f1afbdaa35c8)"><path d=" M 3.4351850168855798 0.8908624943158252 L 2.1928274353439074 0.8908624943158252 M 3.4351850168855798 1.026136070949737 L 2.1928274353439074 1.026136070949737" fill="none" transform="matrix(1,0,0,1,0,0)" fill-rule="nonzero" stroke-dasharray="none" stroke-miterlimit="10" stroke-linejoin="miter" stroke-linecap="round" stroke-width="0.084133215779529" stroke="#ac7f44"></path></g><g clip-path="url(#SvgjsClipPath48215d06697e9-28de-434f-8acf-f1afbdaa35c8)"><path d=" M 3.4351850168855798 0.7515685523108353 L 2.1928274353439074 0.7515685523108353 L 2.1928274353439074 1.1654006020769008 L 3.4351850168855798 1.1654006020769008" fill="none" transform="matrix(1,0,0,1,0,0)" fill-rule="nonzero" stroke-dasharray="none" stroke-miterlimit="10" stroke-linejoin="round" stroke-linecap="round" stroke-width="0.084133215779529" stroke="#d9bb72"></path></g><g clip-path="url(#SvgjsClipPath48215d06697e9-28de-434f-8acf-f1afbdaa35c8)"><path d=" M 2.0725485489880007 0.5622855397251659 L 3.5121166854695387 0.5622855397251659 L 3.5121166854695387 0.2447903291878785 L 2.0725485489880007 0.2447903291878785 Z" fill="#314f4f" transform="matrix(1,0,0,1,0,0)" fill-rule="nonzero"></path></g><g clip-path="url(#SvgjsClipPath48215d06697e9-28de-434f-8acf-f1afbdaa35c8)"><path d=" M 1.899027380743737 0.24453189951483564 L 3.612674542691351 0.24453189951483564 L 3.612674542691351 -2.1508009034581682e-16 L 1.899027380743737 -2.1508009034581682e-16 Z" fill="#a95e29" transform="matrix(1,0,0,1,0,0)" fill-rule="nonzero"></path></g><g clip-path="url(#SvgjsClipPath48215d06697e9-28de-434f-8acf-f1afbdaa35c8)"><path d=" M 0.8518990599819337 1.6978542374838803 L 1.135855841839873 1.6978542374838803 L 1.135855841839873 0.07063744396506504 L 0.8518990599819338 0.07063744396506504 Z" fill="#d9bb72" transform="matrix(1,0,0,1,0,0)" fill-rule="nonzero"></path></g><g clip-path="url(#SvgjsClipPath48215d06697e9-28de-434f-8acf-f1afbdaa35c8)"><path d=" M 0.3931155870994256 0.2113845777729315 L 0.6577475722953776 1.697814628299586 L 0.8518856855668435 1.6632424809280664 L 0.5872824147790076 0.1768124304014117 Z" fill="#461d16" transform="matrix(1,0,0,1,0,0)" fill-rule="nonzero"></path></g><g clip-path="url(#SvgjsClipPath48215d06697e9-28de-434f-8acf-f1afbdaa35c8)"><path d=" M 3.9464894032619675 1.6585297572579818 L 4.203713071164022 1.6978397819686217 L 4.413299536001833 0.326468364762299 L 4.156075868099777 0.28718705445977477 Z" fill="#d9bb72" transform="matrix(1,0,0,1,0,0)" fill-rule="nonzero"></path></g><g clip-path="url(#SvgjsClipPath48215d06697e9-28de-434f-8acf-f1afbdaa35c8)"><path d=" M 1.132592409397715 1.5975832736658169 L 1.4339501225738778 1.6978252723983547 L 1.8972858119317209 0.3050041923294695 L 1.5959568131636739 0.20476219359693174 Z" fill="#a95e29" transform="matrix(1,0,0,1,0,0)" fill-rule="nonzero"></path></g><g clip-path="url(#SvgjsClipPath48215d06697e9-28de-434f-8acf-f1afbdaa35c8)"><path d=" M 3.580595143109713 1.6455220978623395 L 3.756413464003247 1.697839749449473 L 4.137166515619819 0.41887129756005326 L 3.9613769091344 0.36652493156480354 Z" fill="#461d16" transform="matrix(1,0,0,1,0,0)" fill-rule="nonzero"></path></g><g clip-path="url(#SvgjsClipPath48215d06697e9-28de-434f-8acf-f1afbdaa35c8)"><path d=" M 4.413289669778322 1.6978542374838803 L 4.843173073681165 1.6978542374838803 L 4.843173073681165 0.12226594975741761 L 4.413289669778322 0.12226594975741761 Z" fill="#314f4f" transform="matrix(1,0,0,1,0,0)" fill-rule="nonzero"></path></g><g clip-path="url(#SvgjsClipPath48215d06697e9-28de-434f-8acf-f1afbdaa35c8)"><path d=" M 4.413289669778322 1.0273728079780777 L 4.843173073681165 1.0273728079780777 L 4.843173073681165 0.7927186648551044 L 4.413289669778322 0.7927186648551044 Z M 4.413289669778322 0.6851544920530174 L 4.843173073681165 0.6851544920530174 L 4.843173073681165 0.45050034893004437 L 4.413289669778322 0.45050034893004437 Z M 1.8161863133294225 0.7031584259416742 L 3.6343539208188407 0.7031584259416742 L 3.6343539208188407 0.5622855397251659 L 1.8161863133294225 0.5622855397251659 Z" fill="#ef434f" transform="matrix(1,0,0,1,0,0)" fill-rule="nonzero"></path></g><g clip-path="url(#SvgjsClipPath48215d06697e9-28de-434f-8acf-f1afbdaa35c8)"><path d=" M 2.68583087752697 0.7031584259416742 L 2.764709356621293 0.7031584259416742 L 2.764709356621293 0.5622855397251659 L 2.68583087752697 0.5622855397251659 Z M 2.854097309086028 0.7031584259416742 L 2.932975788180351 0.7031584259416742 L 2.932975788180351 0.5622855397251659 L 2.854097309086028 0.5622855397251659 Z M 3.022392455053202 0.7031584259416742 L 3.101270934147525 0.7031584259416742 L 3.101270934147525 0.5622855397251659 L 3.022392455053202 0.5622855397251659 Z" fill="#a95e29" transform="matrix(1,0,0,1,0,0)" fill-rule="nonzero"></path></g><g clip-path="url(#SvgjsClipPath48215d06697e9-28de-434f-8acf-f1afbdaa35c8)"><path d=" M 2.1694596763790965 0.24453189951483564 L 2.556644755413625 0.24453189951483564 L 2.556644755413625 -2.1508009034581682e-16 L 2.1694596763790965 -2.1508009034581682e-16 Z" fill="#461d16" transform="matrix(1,0,0,1,0,0)" fill-rule="nonzero"></path></g><g clip-path="url(#SvgjsClipPath48215d06697e9-28de-434f-8acf-f1afbdaa35c8)"><path d=" M 0 1.6978542374838803 L 0.39439239547161453 1.6978542374838803 L 0.39439239547161453 0.07063744396506504 L 0 0.07063744396506504 Z" fill="#314f4f" transform="matrix(1,0,0,1,0,0)" fill-rule="nonzero"></path></g><g clip-path="url(#SvgjsClipPath48215d06697e9-28de-434f-8acf-f1afbdaa35c8)"><path d=" M 0.08809580409952045 0.511690752624985 L 0.30632530578020994 0.511690752624985 L 0.30632530578020994 1.2568009288239603 L 0.08809580409952043 1.2568009288239603 Z" fill="#a95e29" transform="matrix(1,0,0,1,0,0)" fill-rule="nonzero"></path></g></g><g transform="matrix(-0.06978350217864622,-0.9975621598796152,0.9975621598796152,-0.06978350217864622,-2.150569748775746,0.03416966600293736)"><g clip-path="url(#SvgjsClipPath48229)"><path d=" M -1.0587953670480423 1.2562356375539252 C -1.0235194813337567 1.2562356375539252 -1.0047791670480424 1.2341882089824967 -1.0047791670480424 1.2033218089824966 C -1.0047791670480424 1.186786237553925 -1.0086374670480422 1.1724554089824966 -1.0235194813337567 1.142691380411068 C -1.0444645384766138 1.1013524518396394 -1.048322838476614 1.0881239946967822 -1.0521811384766138 1.050092180411068 C -1.0251730384766138 1.0528481089824966 -1.002023238476614 1.0589111518396395 -0.9827317384766139 1.067730123268211 C -0.9331250241908995 1.0903287375539252 -0.918794195619471 1.096391780411068 -0.8978491384766139 1.096391780411068 C -0.8691874813337567 1.096391780411068 -0.8460376813337568 1.077100280411068 -0.8460376813337568 1.0423755804110681 C -0.8460376813337568 1.008202066125354 -0.868636295619471 0.9883593804110681 -0.8978491384766139 0.9883593804110681 C -0.9143847099051853 0.9883593804110681 -0.9347785813337568 0.994422423268211 -0.9595819384766138 1.005997323268211 L -0.9827317384766139 1.0170210375539253 C -1.0042279813337567 1.026942380411068 -1.0273777813337568 1.0330054232682109 -1.0521811384766138 1.0357613518396396 C -1.048322838476614 1.0026902089824967 -1.0395038670480423 0.9734773661253538 -1.0257242241908995 0.9470204518396396 C -1.0119445813337566 0.921114723268211 -1.0047791670480424 0.8990672946967824 -1.0047791670480424 0.8814293518396396 C -1.0047791670480424 0.8527676946967824 -1.021314738476614 0.8296178946967825 -1.0587953670480423 0.8296178946967825 C -1.0968271813337567 0.8296178946967825 -1.113913938476614 0.8522165089824967 -1.113913938476614 0.8814293518396396 C -1.113913938476614 0.8996184804110682 -1.1095044527623281 0.9111933804110681 -1.0841499099051852 0.9663119518396395 C -1.0753309384766139 0.9856034518396395 -1.069267895619471 1.0087532518396396 -1.0665119670480423 1.0357613518396396 C -1.0935200670480425 1.0330054232682109 -1.1210793527623282 1.0247376375539252 -1.150292195619471 1.009855623268211 C -1.1789543120837567 0.9955247946967825 -1.2026552977980423 0.9883593804110681 -1.2208444263694709 0.9883593804110681 C -1.249506083512328 0.9883593804110681 -1.272655883512328 1.007650880411068 -1.272655883512328 1.0423755804110681 C -1.272655883512328 1.077100280411068 -1.2500572692266139 1.096391780411068 -1.2208444263694709 1.096391780411068 C -1.2010017406551852 1.096391780411068 -1.1888756549408994 1.0919822946967823 -1.1359613670480424 1.067730123268211 C -1.1166698670480424 1.0589111518396395 -1.0935200670480425 1.0528481089824966 -1.0665119670480423 1.050092180411068 C -1.0703702670480424 1.083163323268211 -1.0791892384766137 1.1123761661253537 -1.0929688813337566 1.138833080411068 C -1.1067485241908996 1.1647388089824966 -1.113913938476614 1.1862350518396396 -1.113913938476614 1.2033218089824966 C -1.113913938476614 1.2336370232682108 -1.0951736241908994 1.2562356375539252 -1.0587953670480423 1.2562356375539252 Z" fill="#461d16" transform="matrix(1,0,0,1,0,0)" fill-rule="nonzero"></path></g></g><g transform="matrix(0.06978350217864622,-0.9975621598796152,-0.9975621598796152,-0.06978350217864622,6.50791845718112,6.979077674574631)"><g clip-path="url(#SvgjsClipPath48230)"><path d=" M 5.903084591800635 1.2562356375539252 C 5.938360477514921 1.2562356375539252 5.957100791800635 1.2341882089824967 5.957100791800635 1.2033218089824966 C 5.957100791800635 1.186786237553925 5.953242491800635 1.1724554089824966 5.938360477514921 1.142691380411068 C 5.917415420372064 1.1013524518396394 5.913557120372064 1.0881239946967822 5.909698820372064 1.050092180411068 C 5.936706920372064 1.0528481089824966 5.959856720372064 1.0589111518396395 5.979148220372064 1.067730123268211 C 6.028754934657778 1.0903287375539252 6.0430857632292065 1.096391780411068 6.064030820372064 1.096391780411068 C 6.092692477514921 1.096391780411068 6.115842277514921 1.077100280411068 6.115842277514921 1.0423755804110681 C 6.115842277514921 1.008202066125354 6.093243663229207 0.9883593804110681 6.064030820372064 0.9883593804110681 C 6.047495248943492 0.9883593804110681 6.027101377514921 0.994422423268211 6.002298020372064 1.005997323268211 L 5.979148220372064 1.0170210375539253 C 5.957651977514921 1.026942380411068 5.934502177514921 1.0330054232682109 5.909698820372064 1.0357613518396396 C 5.913557120372064 1.0026902089824967 5.922376091800635 0.9734773661253538 5.9361557346577785 0.9470204518396396 C 5.949935377514921 0.921114723268211 5.957100791800635 0.8990672946967824 5.957100791800635 0.8814293518396396 C 5.957100791800635 0.8527676946967824 5.940565220372064 0.8296178946967825 5.903084591800635 0.8296178946967825 C 5.865052777514921 0.8296178946967825 5.847966020372064 0.8522165089824967 5.847966020372064 0.8814293518396396 C 5.847966020372064 0.8996184804110682 5.85237550608635 0.9111933804110681 5.8777300489434925 0.9663119518396395 C 5.886549020372064 0.9856034518396395 5.8926120632292065 1.0087532518396396 5.895367991800636 1.0357613518396396 C 5.868359891800635 1.0330054232682109 5.84080060608635 1.0247376375539252 5.811587763229207 1.009855623268211 C 5.782925646764921 0.9955247946967825 5.759224661050635 0.9883593804110681 5.741035532479207 0.9883593804110681 C 5.7123738753363495 0.9883593804110681 5.68922407533635 1.007650880411068 5.68922407533635 1.0423755804110681 C 5.68922407533635 1.077100280411068 5.711822689622064 1.096391780411068 5.741035532479207 1.096391780411068 C 5.7608782181934926 1.096391780411068 5.773004303907778 1.0919822946967823 5.825918591800636 1.067730123268211 C 5.845210091800635 1.0589111518396395 5.868359891800635 1.0528481089824966 5.895367991800636 1.050092180411068 C 5.8915096918006356 1.083163323268211 5.8826907203720635 1.1123761661253537 5.868911077514921 1.138833080411068 C 5.855131434657778 1.1647388089824966 5.847966020372064 1.1862350518396396 5.847966020372064 1.2033218089824966 C 5.847966020372064 1.2336370232682108 5.866706334657779 1.2562356375539252 5.903084591800635 1.2562356375539252 Z" fill="#461d16" transform="matrix(1,0,0,1,0,0)" fill-rule="nonzero"></path></g></g></g><defs><clipPath id="SvgjsClipPath48228"><path d=" M 0 0 h 4.843173073681165 v 1.6978542374838803 h -4.843173073681165 Z"></path></clipPath><clipPath id="SvgjsClipPath48215d06697e9-28de-434f-8acf-f1afbdaa35c8"><path d=" M 0 0 L 4.843173073681165 0 L 4.843173073681165 1.6978542374838803 L 0 1.6978542374838803 Z"></path></clipPath><clipPath id="SvgjsClipPath48229"><path d=" M -1.3808784425837566 0.6982519661253539 h 0.6430499999999998 v 0.6430499999999998 h -0.6430499999999998 Z"></path></clipPath><clipPath id="SvgjsClipPath48230"><path d=" M 5.581001516264921 0.6982519661253539 h 0.6430499999999998 v 0.6430499999999998 h -0.6430499999999998 Z"></path></clipPath></defs></svg>